<svg width="562" height="562" viewBox="0 0 562 562" fill="none" xmlns="http://www.w3.org/2000/svg">
<g clip-path="url(#clip0_57_9)">
<g opacity="0.8">
<mask id="path-1-inside-1_57_9" fill="white">
<path d="M-70 -95H-19.9286V-44.9286H-70V-95Z"/>
<path d="M-70 -44.9286H-19.9286V5.14285H-70V-44.9286Z"/>
<path d="M-70 5.14285H-19.9286V55.2143H-70V5.14285Z"/>
<path d="M-70 55.2143H-19.9286V105.286H-70V55.2143Z"/>
<path d="M-70 105.286H-19.9286V155.357H-70V105.286Z"/>
<path d="M-70 155.357H-19.9286V205.429H-70V155.357Z"/>
<path d="M-70 205.429H-19.9286V255.5H-70V205.429Z"/>
<path d="M-70 255.5H-19.9286V305.571H-70V255.5Z"/>
<path d="M-70 305.571H-19.9286V355.643H-70V305.571Z"/>
<path d="M-70 355.643H-19.9286V405.714H-70V355.643Z"/>
<path d="M-70 405.714H-19.9286V455.786H-70V405.714Z"/>
<path d="M-70 455.786H-19.9286V505.857H-70V455.786Z"/>
<path d="M-70 505.857H-19.9286V555.929H-70V505.857Z"/>
<path d="M-70 555.929H-19.9286V606H-70V555.929Z"/>
<path d="M-70 606H-19.9286V656.071H-70V606Z"/>
<path d="M-19.9286 -95H30.1429V-44.9286H-19.9286V-95Z"/>
<path d="M-19.9286 -44.9286H30.1429V5.14285H-19.9286V-44.9286Z"/>
<path d="M-19.9286 5.14285H30.1429V55.2143H-19.9286V5.14285Z"/>
<path d="M-19.9286 55.2143H30.1429V105.286H-19.9286V55.2143Z"/>
<path d="M-19.9286 105.286H30.1429V155.357H-19.9286V105.286Z"/>
<path d="M-19.9286 155.357H30.1429V205.429H-19.9286V155.357Z"/>
<path d="M-19.9286 205.429H30.1429V255.5H-19.9286V205.429Z"/>
<path d="M-19.9286 255.5H30.1429V305.571H-19.9286V255.5Z"/>
<path d="M-19.9286 305.571H30.1429V355.643H-19.9286V305.571Z"/>
<path d="M-19.9286 355.643H30.1429V405.714H-19.9286V355.643Z"/>
<path d="M-19.9286 405.714H30.1429V455.786H-19.9286V405.714Z"/>
<path d="M-19.9286 455.786H30.1429V505.857H-19.9286V455.786Z"/>
<path d="M-19.9286 505.857H30.1429V555.929H-19.9286V505.857Z"/>
<path d="M-19.9286 555.929H30.1429V606H-19.9286V555.929Z"/>
<path d="M-19.9286 606H30.1429V656.071H-19.9286V606Z"/>
<path d="M30.1429 -95H80.2143V-44.9286H30.1429V-95Z"/>
<path d="M30.1429 -44.9286H80.2143V5.14285H30.1429V-44.9286Z"/>
<path d="M30.1429 5.14285H80.2143V55.2143H30.1429V5.14285Z"/>
<path d="M30.1429 55.2143H80.2143V105.286H30.1429V55.2143Z"/>
<path d="M30.1429 105.286H80.2143V155.357H30.1429V105.286Z"/>
<path d="M30.1429 155.357H80.2143V205.429H30.1429V155.357Z"/>
<path d="M30.1429 205.429H80.2143V255.5H30.1429V205.429Z"/>
<path d="M30.1429 255.5H80.2143V305.571H30.1429V255.5Z"/>
<path d="M30.1429 305.571H80.2143V355.643H30.1429V305.571Z"/>
<path d="M30.1429 355.643H80.2143V405.714H30.1429V355.643Z"/>
<path d="M30.1429 405.714H80.2143V455.786H30.1429V405.714Z"/>
<path d="M30.1429 455.786H80.2143V505.857H30.1429V455.786Z"/>
<path d="M30.1429 505.857H80.2143V555.929H30.1429V505.857Z"/>
<path d="M30.1429 555.929H80.2143V606H30.1429V555.929Z"/>
<path d="M30.1429 606H80.2143V656.071H30.1429V606Z"/>
<path d="M80.2143 -95H130.286V-44.9286H80.2143V-95Z"/>
<path d="M80.2143 -44.9286H130.286V5.14285H80.2143V-44.9286Z"/>
<path d="M80.2143 5.14285H130.286V55.2143H80.2143V5.14285Z"/>
<path d="M80.2143 55.2143H130.286V105.286H80.2143V55.2143Z"/>
<path d="M80.2143 105.286H130.286V155.357H80.2143V105.286Z"/>
<path d="M80.2143 155.357H130.286V205.429H80.2143V155.357Z"/>
<path d="M80.2143 205.429H130.286V255.5H80.2143V205.429Z"/>
<path d="M80.2143 255.5H130.286V305.571H80.2143V255.5Z"/>
<path d="M80.2143 305.571H130.286V355.643H80.2143V305.571Z"/>
<path d="M80.2143 355.643H130.286V405.714H80.2143V355.643Z"/>
<path d="M80.2143 405.714H130.286V455.786H80.2143V405.714Z"/>
<path d="M80.2143 455.786H130.286V505.857H80.2143V455.786Z"/>
<path d="M80.2143 505.857H130.286V555.929H80.2143V505.857Z"/>
<path d="M80.2143 555.929H130.286V606H80.2143V555.929Z"/>
<path d="M80.2143 606H130.286V656.071H80.2143V606Z"/>
<path d="M130.286 -95H180.357V-44.9286H130.286V-95Z"/>
<path d="M130.286 -44.9286H180.357V5.14285H130.286V-44.9286Z"/>
<path d="M130.286 5.14285H180.357V55.2143H130.286V5.14285Z"/>
<path d="M130.286 55.2143H180.357V105.286H130.286V55.2143Z"/>
<path d="M130.286 105.286H180.357V155.357H130.286V105.286Z"/>
<path d="M130.286 155.357H180.357V205.429H130.286V155.357Z"/>
<path d="M130.286 205.429H180.357V255.5H130.286V205.429Z"/>
<path d="M130.286 255.5H180.357V305.571H130.286V255.5Z"/>
<path d="M130.286 305.571H180.357V355.643H130.286V305.571Z"/>
<path d="M130.286 355.643H180.357V405.714H130.286V355.643Z"/>
<path d="M130.286 405.714H180.357V455.786H130.286V405.714Z"/>
<path d="M130.286 455.786H180.357V505.857H130.286V455.786Z"/>
<path d="M130.286 505.857H180.357V555.929H130.286V505.857Z"/>
<path d="M130.286 555.929H180.357V606H130.286V555.929Z"/>
<path d="M130.286 606H180.357V656.071H130.286V606Z"/>
<path d="M180.357 -95H230.429V-44.9286H180.357V-95Z"/>
<path d="M180.357 -44.9286H230.429V5.14285H180.357V-44.9286Z"/>
<path d="M180.357 5.14285H230.429V55.2143H180.357V5.14285Z"/>
<path d="M180.357 55.2143H230.429V105.286H180.357V55.2143Z"/>
<path d="M180.357 105.286H230.429V155.357H180.357V105.286Z"/>
<path d="M180.357 155.357H230.429V205.429H180.357V155.357Z"/>
<path d="M180.357 205.429H230.429V255.5H180.357V205.429Z"/>
<path d="M180.357 255.5H230.429V305.571H180.357V255.5Z"/>
<path d="M180.357 305.571H230.429V355.643H180.357V305.571Z"/>
<path d="M180.357 355.643H230.429V405.714H180.357V355.643Z"/>
<path d="M180.357 405.714H230.429V455.786H180.357V405.714Z"/>
<path d="M180.357 455.786H230.429V505.857H180.357V455.786Z"/>
<path d="M180.357 505.857H230.429V555.929H180.357V505.857Z"/>
<path d="M180.357 555.929H230.429V606H180.357V555.929Z"/>
<path d="M180.357 606H230.429V656.071H180.357V606Z"/>
<path d="M230.429 -95H280.5V-44.9286H230.429V-95Z"/>
<path d="M230.429 -44.9286H280.5V5.14285H230.429V-44.9286Z"/>
<path d="M230.429 5.14285H280.5V55.2143H230.429V5.14285Z"/>
<path d="M230.429 55.2143H280.5V105.286H230.429V55.2143Z"/>
<path d="M230.429 105.286H280.5V155.357H230.429V105.286Z"/>
<path d="M230.429 155.357H280.5V205.429H230.429V155.357Z"/>
<path d="M230.429 205.429H280.5V255.5H230.429V205.429Z"/>
<path d="M230.429 255.5H280.5V305.571H230.429V255.5Z"/>
<path d="M230.429 305.571H280.5V355.643H230.429V305.571Z"/>
<path d="M230.429 355.643H280.5V405.714H230.429V355.643Z"/>
<path d="M230.429 405.714H280.5V455.786H230.429V405.714Z"/>
<path d="M230.429 455.786H280.5V505.857H230.429V455.786Z"/>
<path d="M230.429 505.857H280.5V555.929H230.429V505.857Z"/>
<path d="M230.429 555.929H280.5V606H230.429V555.929Z"/>
<path d="M230.429 606H280.5V656.071H230.429V606Z"/>
<path d="M280.5 -95H330.571V-44.9286H280.5V-95Z"/>
<path d="M280.5 -44.9286H330.571V5.14285H280.5V-44.9286Z"/>
<path d="M280.5 5.14285H330.571V55.2143H280.5V5.14285Z"/>
<path d="M280.5 55.2143H330.571V105.286H280.5V55.2143Z"/>
<path d="M280.5 105.286H330.571V155.357H280.5V105.286Z"/>
<path d="M280.5 155.357H330.571V205.429H280.5V155.357Z"/>
<path d="M280.5 205.429H330.571V255.5H280.5V205.429Z"/>
<path d="M280.5 255.5H330.571V305.571H280.5V255.5Z"/>
<path d="M280.5 305.571H330.571V355.643H280.5V305.571Z"/>
<path d="M280.5 355.643H330.571V405.714H280.5V355.643Z"/>
<path d="M280.5 405.714H330.571V455.786H280.5V405.714Z"/>
<path d="M280.5 455.786H330.571V505.857H280.5V455.786Z"/>
<path d="M280.5 505.857H330.571V555.929H280.5V505.857Z"/>
<path d="M280.5 555.929H330.571V606H280.5V555.929Z"/>
<path d="M280.5 606H330.571V656.071H280.5V606Z"/>
<path d="M330.571 -95H380.643V-44.9286H330.571V-95Z"/>
<path d="M330.571 -44.9286H380.643V5.14285H330.571V-44.9286Z"/>
<path d="M330.571 5.14285H380.643V55.2143H330.571V5.14285Z"/>
<path d="M330.571 55.2143H380.643V105.286H330.571V55.2143Z"/>
<path d="M330.571 105.286H380.643V155.357H330.571V105.286Z"/>
<path d="M330.571 155.357H380.643V205.429H330.571V155.357Z"/>
<path d="M330.571 205.429H380.643V255.5H330.571V205.429Z"/>
<path d="M330.571 255.5H380.643V305.571H330.571V255.5Z"/>
<path d="M330.571 305.571H380.643V355.643H330.571V305.571Z"/>
<path d="M330.571 355.643H380.643V405.714H330.571V355.643Z"/>
<path d="M330.571 405.714H380.643V455.786H330.571V405.714Z"/>
<path d="M330.571 455.786H380.643V505.857H330.571V455.786Z"/>
<path d="M330.571 505.857H380.643V555.929H330.571V505.857Z"/>
<path d="M330.571 555.929H380.643V606H330.571V555.929Z"/>
<path d="M330.571 606H380.643V656.071H330.571V606Z"/>
<path d="M380.643 -95H430.714V-44.9286H380.643V-95Z"/>
<path d="M380.643 -44.9286H430.714V5.14285H380.643V-44.9286Z"/>
<path d="M380.643 5.14285H430.714V55.2143H380.643V5.14285Z"/>
<path d="M380.643 55.2143H430.714V105.286H380.643V55.2143Z"/>
<path d="M380.643 105.286H430.714V155.357H380.643V105.286Z"/>
<path d="M380.643 155.357H430.714V205.429H380.643V155.357Z"/>
<path d="M380.643 205.429H430.714V255.5H380.643V205.429Z"/>
<path d="M380.643 255.5H430.714V305.571H380.643V255.5Z"/>
<path d="M380.643 305.571H430.714V355.643H380.643V305.571Z"/>
<path d="M380.643 355.643H430.714V405.714H380.643V355.643Z"/>
<path d="M380.643 405.714H430.714V455.786H380.643V405.714Z"/>
<path d="M380.643 455.786H430.714V505.857H380.643V455.786Z"/>
<path d="M380.643 505.857H430.714V555.929H380.643V505.857Z"/>
<path d="M380.643 555.929H430.714V606H380.643V555.929Z"/>
<path d="M380.643 606H430.714V656.071H380.643V606Z"/>
<path d="M430.714 -95H480.786V-44.9286H430.714V-95Z"/>
<path d="M430.714 -44.9286H480.786V5.14285H430.714V-44.9286Z"/>
<path d="M430.714 5.14285H480.786V55.2143H430.714V5.14285Z"/>
<path d="M430.714 55.2143H480.786V105.286H430.714V55.2143Z"/>
<path d="M430.714 105.286H480.786V155.357H430.714V105.286Z"/>
<path d="M430.714 155.357H480.786V205.429H430.714V155.357Z"/>
<path d="M430.714 205.429H480.786V255.5H430.714V205.429Z"/>
<path d="M430.714 255.5H480.786V305.571H430.714V255.5Z"/>
<path d="M430.714 305.571H480.786V355.643H430.714V305.571Z"/>
<path d="M430.714 355.643H480.786V405.714H430.714V355.643Z"/>
<path d="M430.714 405.714H480.786V455.786H430.714V405.714Z"/>
<path d="M430.714 455.786H480.786V505.857H430.714V455.786Z"/>
<path d="M430.714 505.857H480.786V555.929H430.714V505.857Z"/>
<path d="M430.714 555.929H480.786V606H430.714V555.929Z"/>
<path d="M430.714 606H480.786V656.071H430.714V606Z"/>
<path d="M480.786 -95H530.857V-44.9286H480.786V-95Z"/>
<path d="M480.786 -44.9286H530.857V5.14285H480.786V-44.9286Z"/>
<path d="M480.786 5.14285H530.857V55.2143H480.786V5.14285Z"/>
<path d="M480.786 55.2143H530.857V105.286H480.786V55.2143Z"/>
<path d="M480.786 105.286H530.857V155.357H480.786V105.286Z"/>
<path d="M480.786 155.357H530.857V205.429H480.786V155.357Z"/>
<path d="M480.786 205.429H530.857V255.5H480.786V205.429Z"/>
<path d="M480.786 255.5H530.857V305.571H480.786V255.5Z"/>
<path d="M480.786 305.571H530.857V355.643H480.786V305.571Z"/>
<path d="M480.786 355.643H530.857V405.714H480.786V355.643Z"/>
<path d="M480.786 405.714H530.857V455.786H480.786V405.714Z"/>
<path d="M480.786 455.786H530.857V505.857H480.786V455.786Z"/>
<path d="M480.786 505.857H530.857V555.929H480.786V505.857Z"/>
<path d="M480.786 555.929H530.857V606H480.786V555.929Z"/>
<path d="M480.786 606H530.857V656.071H480.786V606Z"/>
<path d="M530.857 -95H580.929V-44.9286H530.857V-95Z"/>
<path d="M530.857 -44.9286H580.929V5.14285H530.857V-44.9286Z"/>
<path d="M530.857 5.14285H580.929V55.2143H530.857V5.14285Z"/>
<path d="M530.857 55.2143H580.929V105.286H530.857V55.2143Z"/>
<path d="M530.857 105.286H580.929V155.357H530.857V105.286Z"/>
<path d="M530.857 155.357H580.929V205.429H530.857V155.357Z"/>
<path d="M530.857 205.429H580.929V255.5H530.857V205.429Z"/>
<path d="M530.857 255.5H580.929V305.571H530.857V255.5Z"/>
<path d="M530.857 305.571H580.929V355.643H530.857V305.571Z"/>
<path d="M530.857 355.643H580.929V405.714H530.857V355.643Z"/>
<path d="M530.857 405.714H580.929V455.786H530.857V405.714Z"/>
<path d="M530.857 455.786H580.929V505.857H530.857V455.786Z"/>
<path d="M530.857 505.857H580.929V555.929H530.857V505.857Z"/>
<path d="M530.857 555.929H580.929V606H530.857V555.929Z"/>
<path d="M530.857 606H580.929V656.071H530.857V606Z"/>
<path d="M580.929 -95H631V-44.9286H580.929V-95Z"/>
<path d="M580.929 -44.9286H631V5.14285H580.929V-44.9286Z"/>
<path d="M580.929 5.14285H631V55.2143H580.929V5.14285Z"/>
<path d="M580.929 55.2143H631V105.286H580.929V55.2143Z"/>
<path d="M580.929 105.286H631V155.357H580.929V105.286Z"/>
<path d="M580.929 155.357H631V205.429H580.929V155.357Z"/>
<path d="M580.929 205.429H631V255.5H580.929V205.429Z"/>
<path d="M580.929 255.5H631V305.571H580.929V255.5Z"/>
<path d="M580.929 305.571H631V355.643H580.929V305.571Z"/>
<path d="M580.929 355.643H631V405.714H580.929V355.643Z"/>
<path d="M580.929 405.714H631V455.786H580.929V405.714Z"/>
<path d="M580.929 455.786H631V505.857H580.929V455.786Z"/>
<path d="M580.929 505.857H631V555.929H580.929V505.857Z"/>
<path d="M580.929 555.929H631V606H580.929V555.929Z"/>
<path d="M580.929 606H631V656.071H580.929V606Z"/>
</mask>
<path d="M-21.1804 -95V-44.9286H-18.6768V-95H-21.1804ZM-19.9286 -46.1804H-70V-43.6768H-19.9286V-46.1804ZM-21.1804 -44.9286V5.14285H-18.6768V-44.9286H-21.1804ZM-19.9286 3.89107H-70V6.39464H-19.9286V3.89107ZM-21.1804 5.14285V55.2143H-18.6768V5.14285H-21.1804ZM-19.9286 53.9625H-70V56.4661H-19.9286V53.9625ZM-21.1804 55.2143V105.286H-18.6768V55.2143H-21.1804ZM-19.9286 104.034H-70V106.537H-19.9286V104.034ZM-21.1804 105.286V155.357H-18.6768V105.286H-21.1804ZM-19.9286 154.105H-70V156.609H-19.9286V154.105ZM-21.1804 155.357V205.429H-18.6768V155.357H-21.1804ZM-19.9286 204.177H-70V206.68H-19.9286V204.177ZM-21.1804 205.429V255.5H-18.6768V205.429H-21.1804ZM-19.9286 254.248H-70V256.752H-19.9286V254.248ZM-21.1804 255.5V305.571H-18.6768V255.5H-21.1804ZM-19.9286 304.32H-70V306.823H-19.9286V304.32ZM-21.1804 305.571V355.643H-18.6768V305.571H-21.1804ZM-19.9286 354.391H-70V356.895H-19.9286V354.391ZM-21.1804 355.643V405.714H-18.6768V355.643H-21.1804ZM-19.9286 404.462H-70V406.966H-19.9286V404.462ZM-21.1804 405.714V455.786H-18.6768V405.714H-21.1804ZM-19.9286 454.534H-70V457.037H-19.9286V454.534ZM-21.1804 455.786V505.857H-18.6768V455.786H-21.1804ZM-19.9286 504.605H-70V507.109H-19.9286V504.605ZM-21.1804 505.857V555.929H-18.6768V505.857H-21.1804ZM-19.9286 554.677H-70V557.18H-19.9286V554.677ZM-21.1804 555.929V606H-18.6768V555.929H-21.1804ZM-19.9286 604.748H-70V607.252H-19.9286V604.748ZM-21.1804 606V656.071H-18.6768V606H-21.1804ZM28.8911 -95V-44.9286H31.3946V-95H28.8911ZM30.1429 -46.1804H-19.9286V-43.6768H30.1429V-46.1804ZM28.8911 -44.9286V5.14285H31.3946V-44.9286H28.8911ZM30.1429 3.89107H-19.9286V6.39464H30.1429V3.89107ZM28.8911 5.14285V55.2143H31.3946V5.14285H28.8911ZM30.1429 53.9625H-19.9286V56.4661H30.1429V53.9625ZM28.8911 55.2143V105.286H31.3946V55.2143H28.8911ZM30.1429 104.034H-19.9286V106.537H30.1429V104.034ZM28.8911 105.286V155.357H31.3946V105.286H28.8911ZM30.1429 154.105H-19.9286V156.609H30.1429V154.105ZM28.8911 155.357V205.429H31.3946V155.357H28.8911ZM30.1429 204.177H-19.9286V206.68H30.1429V204.177ZM28.8911 205.429V255.5H31.3946V205.429H28.8911ZM30.1429 254.248H-19.9286V256.752H30.1429V254.248ZM28.8911 255.5V305.571H31.3946V255.5H28.8911ZM30.1429 304.32H-19.9286V306.823H30.1429V304.32ZM28.8911 305.571V355.643H31.3946V305.571H28.8911ZM30.1429 354.391H-19.9286V356.895H30.1429V354.391ZM28.8911 355.643V405.714H31.3946V355.643H28.8911ZM30.1429 404.462H-19.9286V406.966H30.1429V404.462ZM28.8911 405.714V455.786H31.3946V405.714H28.8911ZM30.1429 454.534H-19.9286V457.037H30.1429V454.534ZM28.8911 455.786V505.857H31.3946V455.786H28.8911ZM30.1429 504.605H-19.9286V507.109H30.1429V504.605ZM28.8911 505.857V555.929H31.3946V505.857H28.8911ZM30.1429 554.677H-19.9286V557.18H30.1429V554.677ZM28.8911 555.929V606H31.3946V555.929H28.8911ZM30.1429 604.748H-19.9286V607.252H30.1429V604.748ZM28.8911 606V656.071H31.3946V606H28.8911ZM78.9625 -95V-44.9286H81.4661V-95H78.9625ZM80.2143 -46.1804H30.1429V-43.6768H80.2143V-46.1804ZM78.9625 -44.9286V5.14285H81.4661V-44.9286H78.9625ZM80.2143 3.89107H30.1429V6.39464H80.2143V3.89107ZM78.9625 5.14285V55.2143H81.4661V5.14285H78.9625ZM80.2143 53.9625H30.1429V56.4661H80.2143V53.9625ZM78.9625 55.2143V105.286H81.4661V55.2143H78.9625ZM80.2143 104.034H30.1429V106.537H80.2143V104.034ZM78.9625 105.286V155.357H81.4661V105.286H78.9625ZM80.2143 154.105H30.1429V156.609H80.2143V154.105ZM78.9625 155.357V205.429H81.4661V155.357H78.9625ZM80.2143 204.177H30.1429V206.68H80.2143V204.177ZM78.9625 205.429V255.5H81.4661V205.429H78.9625ZM80.2143 254.248H30.1429V256.752H80.2143V254.248ZM78.9625 255.5V305.571H81.4661V255.5H78.9625ZM80.2143 304.32H30.1429V306.823H80.2143V304.32ZM78.9625 305.571V355.643H81.4661V305.571H78.9625ZM80.2143 354.391H30.1429V356.895H80.2143V354.391ZM78.9625 355.643V405.714H81.4661V355.643H78.9625ZM80.2143 404.462H30.1429V406.966H80.2143V404.462ZM78.9625 405.714V455.786H81.4661V405.714H78.9625ZM80.2143 454.534H30.1429V457.037H80.2143V454.534ZM78.9625 455.786V505.857H81.4661V455.786H78.9625ZM80.2143 504.605H30.1429V507.109H80.2143V504.605ZM78.9625 505.857V555.929H81.4661V505.857H78.9625ZM80.2143 554.677H30.1429V557.18H80.2143V554.677ZM78.9625 555.929V606H81.4661V555.929H78.9625ZM80.2143 604.748H30.1429V607.252H80.2143V604.748ZM78.9625 606V656.071H81.4661V606H78.9625ZM129.034 -95V-44.9286H131.537V-95H129.034ZM130.286 -46.1804H80.2143V-43.6768H130.286V-46.1804ZM129.034 -44.9286V5.14285H131.537V-44.9286H129.034ZM130.286 3.89107H80.2143V6.39464H130.286V3.89107ZM129.034 5.14285V55.2143H131.537V5.14285H129.034ZM130.286 53.9625H80.2143V56.4661H130.286V53.9625ZM129.034 55.2143V105.286H131.537V55.2143H129.034ZM130.286 104.034H80.2143V106.537H130.286V104.034ZM129.034 105.286V155.357H131.537V105.286H129.034ZM130.286 154.105H80.2143V156.609H130.286V154.105ZM129.034 155.357V205.429H131.537V155.357H129.034ZM130.286 204.177H80.2143V206.68H130.286V204.177ZM129.034 205.429V255.5H131.537V205.429H129.034ZM130.286 254.248H80.2143V256.752H130.286V254.248ZM129.034 255.5V305.571H131.537V255.5H129.034ZM130.286 304.32H80.2143V306.823H130.286V304.32ZM129.034 305.571V355.643H131.537V305.571H129.034ZM130.286 354.391H80.2143V356.895H130.286V354.391ZM129.034 355.643V405.714H131.537V355.643H129.034ZM130.286 404.462H80.2143V406.966H130.286V404.462ZM129.034 405.714V455.786H131.537V405.714H129.034ZM130.286 454.534H80.2143V457.037H130.286V454.534ZM129.034 455.786V505.857H131.537V455.786H129.034ZM130.286 504.605H80.2143V507.109H130.286V504.605ZM129.034 505.857V555.929H131.537V505.857H129.034ZM130.286 554.677H80.2143V557.18H130.286V554.677ZM129.034 555.929V606H131.537V555.929H129.034ZM130.286 604.748H80.2143V607.252H130.286V604.748ZM129.034 606V656.071H131.537V606H129.034ZM179.105 -95V-44.9286H181.609V-95H179.105ZM180.357 -46.1804H130.286V-43.6768H180.357V-46.1804ZM179.105 -44.9286V5.14285H181.609V-44.9286H179.105ZM180.357 3.89107H130.286V6.39464H180.357V3.89107ZM179.105 5.14285V55.2143H181.609V5.14285H179.105ZM180.357 53.9625H130.286V56.4661H180.357V53.9625ZM179.105 55.2143V105.286H181.609V55.2143H179.105ZM180.357 104.034H130.286V106.537H180.357V104.034ZM179.105 105.286V155.357H181.609V105.286H179.105ZM180.357 154.105H130.286V156.609H180.357V154.105ZM179.105 155.357V205.429H181.609V155.357H179.105ZM180.357 204.177H130.286V206.68H180.357V204.177ZM179.105 205.429V255.5H181.609V205.429H179.105ZM180.357 254.248H130.286V256.752H180.357V254.248ZM179.105 255.5V305.571H181.609V255.5H179.105ZM180.357 304.32H130.286V306.823H180.357V304.32ZM179.105 305.571V355.643H181.609V305.571H179.105ZM180.357 354.391H130.286V356.895H180.357V354.391ZM179.105 355.643V405.714H181.609V355.643H179.105ZM180.357 404.462H130.286V406.966H180.357V404.462ZM179.105 405.714V455.786H181.609V405.714H179.105ZM180.357 454.534H130.286V457.037H180.357V454.534ZM179.105 455.786V505.857H181.609V455.786H179.105ZM180.357 504.605H130.286V507.109H180.357V504.605ZM179.105 505.857V555.929H181.609V505.857H179.105ZM180.357 554.677H130.286V557.18H180.357V554.677ZM179.105 555.929V606H181.609V555.929H179.105ZM180.357 604.748H130.286V607.252H180.357V604.748ZM179.105 606V656.071H181.609V606H179.105ZM229.177 -95V-44.9286H231.68V-95H229.177ZM230.429 -46.1804H180.357V-43.6768H230.429V-46.1804ZM229.177 -44.9286V5.14285H231.68V-44.9286H229.177ZM230.429 3.89107H180.357V6.39464H230.429V3.89107ZM229.177 5.14285V55.2143H231.68V5.14285H229.177ZM230.429 53.9625H180.357V56.4661H230.429V53.9625ZM229.177 55.2143V105.286H231.68V55.2143H229.177ZM230.429 104.034H180.357V106.537H230.429V104.034ZM229.177 105.286V155.357H231.68V105.286H229.177ZM230.429 154.105H180.357V156.609H230.429V154.105ZM229.177 155.357V205.429H231.68V155.357H229.177ZM230.429 204.177H180.357V206.68H230.429V204.177ZM229.177 205.429V255.5H231.68V205.429H229.177ZM230.429 254.248H180.357V256.752H230.429V254.248ZM229.177 255.5V305.571H231.68V255.5H229.177ZM230.429 304.32H180.357V306.823H230.429V304.32ZM229.177 305.571V355.643H231.68V305.571H229.177ZM230.429 354.391H180.357V356.895H230.429V354.391ZM229.177 355.643V405.714H231.68V355.643H229.177ZM230.429 404.462H180.357V406.966H230.429V404.462ZM229.177 405.714V455.786H231.68V405.714H229.177ZM230.429 454.534H180.357V457.037H230.429V454.534ZM229.177 455.786V505.857H231.68V455.786H229.177ZM230.429 504.605H180.357V507.109H230.429V504.605ZM229.177 505.857V555.929H231.68V505.857H229.177ZM230.429 554.677H180.357V557.18H230.429V554.677ZM229.177 555.929V606H231.68V555.929H229.177ZM230.429 604.748H180.357V607.252H230.429V604.748ZM229.177 606V656.071H231.68V606H229.177ZM279.248 -95V-44.9286H281.752V-95H279.248ZM280.5 -46.1804H230.429V-43.6768H280.5V-46.1804ZM279.248 -44.9286V5.14285H281.752V-44.9286H279.248ZM280.5 3.89107H230.429V6.39464H280.5V3.89107ZM279.248 5.14285V55.2143H281.752V5.14285H279.248ZM280.5 53.9625H230.429V56.4661H280.5V53.9625ZM279.248 55.2143V105.286H281.752V55.2143H279.248ZM280.5 104.034H230.429V106.537H280.5V104.034ZM279.248 105.286V155.357H281.752V105.286H279.248ZM280.5 154.105H230.429V156.609H280.5V154.105ZM279.248 155.357V205.429H281.752V155.357H279.248ZM280.5 204.177H230.429V206.68H280.5V204.177ZM279.248 205.429V255.5H281.752V205.429H279.248ZM280.5 254.248H230.429V256.752H280.5V254.248ZM279.248 255.5V305.571H281.752V255.5H279.248ZM280.5 304.32H230.429V306.823H280.5V304.32ZM279.248 305.571V355.643H281.752V305.571H279.248ZM280.5 354.391H230.429V356.895H280.5V354.391ZM279.248 355.643V405.714H281.752V355.643H279.248ZM280.5 404.462H230.429V406.966H280.5V404.462ZM279.248 405.714V455.786H281.752V405.714H279.248ZM280.5 454.534H230.429V457.037H280.5V454.534ZM279.248 455.786V505.857H281.752V455.786H279.248ZM280.5 504.605H230.429V507.109H280.5V504.605ZM279.248 505.857V555.929H281.752V505.857H279.248ZM280.5 554.677H230.429V557.18H280.5V554.677ZM279.248 555.929V606H281.752V555.929H279.248ZM280.5 604.748H230.429V607.252H280.5V604.748ZM279.248 606V656.071H281.752V606H279.248ZM329.32 -95V-44.9286H331.823V-95H329.32ZM330.571 -46.1804H280.5V-43.6768H330.571V-46.1804ZM329.32 -44.9286V5.14285H331.823V-44.9286H329.32ZM330.571 3.89107H280.5V6.39464H330.571V3.89107ZM329.32 5.14285V55.2143H331.823V5.14285H329.32ZM330.571 53.9625H280.5V56.4661H330.571V53.9625ZM329.32 55.2143V105.286H331.823V55.2143H329.32ZM330.571 104.034H280.5V106.537H330.571V104.034ZM329.32 105.286V155.357H331.823V105.286H329.32ZM330.571 154.105H280.5V156.609H330.571V154.105ZM329.32 155.357V205.429H331.823V155.357H329.32ZM330.571 204.177H280.5V206.68H330.571V204.177ZM329.32 205.429V255.5H331.823V205.429H329.32ZM330.571 254.248H280.5V256.752H330.571V254.248ZM329.32 255.5V305.571H331.823V255.5H329.32ZM330.571 304.32H280.5V306.823H330.571V304.32ZM329.32 305.571V355.643H331.823V305.571H329.32ZM330.571 354.391H280.5V356.895H330.571V354.391ZM329.32 355.643V405.714H331.823V355.643H329.32ZM330.571 404.462H280.5V406.966H330.571V404.462ZM329.32 405.714V455.786H331.823V405.714H329.32ZM330.571 454.534H280.5V457.037H330.571V454.534ZM329.32 455.786V505.857H331.823V455.786H329.32ZM330.571 504.605H280.5V507.109H330.571V504.605ZM329.32 505.857V555.929H331.823V505.857H329.32ZM330.571 554.677H280.5V557.18H330.571V554.677ZM329.32 555.929V606H331.823V555.929H329.32ZM330.571 604.748H280.5V607.252H330.571V604.748ZM329.32 606V656.071H331.823V606H329.32ZM379.391 -95V-44.9286H381.895V-95H379.391ZM380.643 -46.1804H330.571V-43.6768H380.643V-46.1804ZM379.391 -44.9286V5.14285H381.895V-44.9286H379.391ZM380.643 3.89107H330.571V6.39464H380.643V3.89107ZM379.391 5.14285V55.2143H381.895V5.14285H379.391ZM380.643 53.9625H330.571V56.4661H380.643V53.9625ZM379.391 55.2143V105.286H381.895V55.2143H379.391ZM380.643 104.034H330.571V106.537H380.643V104.034ZM379.391 105.286V155.357H381.895V105.286H379.391ZM380.643 154.105H330.571V156.609H380.643V154.105ZM379.391 155.357V205.429H381.895V155.357H379.391ZM380.643 204.177H330.571V206.68H380.643V204.177ZM379.391 205.429V255.5H381.895V205.429H379.391ZM380.643 254.248H330.571V256.752H380.643V254.248ZM379.391 255.5V305.571H381.895V255.5H379.391ZM380.643 304.32H330.571V306.823H380.643V304.32ZM379.391 305.571V355.643H381.895V305.571H379.391ZM380.643 354.391H330.571V356.895H380.643V354.391ZM379.391 355.643V405.714H381.895V355.643H379.391ZM380.643 404.462H330.571V406.966H380.643V404.462ZM379.391 405.714V455.786H381.895V405.714H379.391ZM380.643 454.534H330.571V457.037H380.643V454.534ZM379.391 455.786V505.857H381.895V455.786H379.391ZM380.643 504.605H330.571V507.109H380.643V504.605ZM379.391 505.857V555.929H381.895V505.857H379.391ZM380.643 554.677H330.571V557.18H380.643V554.677ZM379.391 555.929V606H381.895V555.929H379.391ZM380.643 604.748H330.571V607.252H380.643V604.748ZM379.391 606V656.071H381.895V606H379.391ZM429.462 -95V-44.9286H431.966V-95H429.462ZM430.714 -46.1804H380.643V-43.6768H430.714V-46.1804ZM429.462 -44.9286V5.14285H431.966V-44.9286H429.462ZM430.714 3.89107H380.643V6.39464H430.714V3.89107ZM429.462 5.14285V55.2143H431.966V5.14285H429.462ZM430.714 53.9625H380.643V56.4661H430.714V53.9625ZM429.462 55.2143V105.286H431.966V55.2143H429.462ZM430.714 104.034H380.643V106.537H430.714V104.034ZM429.462 105.286V155.357H431.966V105.286H429.462ZM430.714 154.105H380.643V156.609H430.714V154.105ZM429.462 155.357V205.429H431.966V155.357H429.462ZM430.714 204.177H380.643V206.68H430.714V204.177ZM429.462 205.429V255.5H431.966V205.429H429.462ZM430.714 254.248H380.643V256.752H430.714V254.248ZM429.462 255.5V305.571H431.966V255.5H429.462ZM430.714 304.32H380.643V306.823H430.714V304.32ZM429.462 305.571V355.643H431.966V305.571H429.462ZM430.714 354.391H380.643V356.895H430.714V354.391ZM429.462 355.643V405.714H431.966V355.643H429.462ZM430.714 404.462H380.643V406.966H430.714V404.462ZM429.462 405.714V455.786H431.966V405.714H429.462ZM430.714 454.534H380.643V457.037H430.714V454.534ZM429.462 455.786V505.857H431.966V455.786H429.462ZM430.714 504.605H380.643V507.109H430.714V504.605ZM429.462 505.857V555.929H431.966V505.857H429.462ZM430.714 554.677H380.643V557.18H430.714V554.677ZM429.462 555.929V606H431.966V555.929H429.462ZM430.714 604.748H380.643V607.252H430.714V604.748ZM429.462 606V656.071H431.966V606H429.462ZM479.534 -95V-44.9286H482.037V-95H479.534ZM480.786 -46.1804H430.714V-43.6768H480.786V-46.1804ZM479.534 -44.9286V5.14285H482.037V-44.9286H479.534ZM480.786 3.89107H430.714V6.39464H480.786V3.89107ZM479.534 5.14285V55.2143H482.037V5.14285H479.534ZM480.786 53.9625H430.714V56.4661H480.786V53.9625ZM479.534 55.2143V105.286H482.037V55.2143H479.534ZM480.786 104.034H430.714V106.537H480.786V104.034ZM479.534 105.286V155.357H482.037V105.286H479.534ZM480.786 154.105H430.714V156.609H480.786V154.105ZM479.534 155.357V205.429H482.037V155.357H479.534ZM480.786 204.177H430.714V206.68H480.786V204.177ZM479.534 205.429V255.5H482.037V205.429H479.534ZM480.786 254.248H430.714V256.752H480.786V254.248ZM479.534 255.5V305.571H482.037V255.5H479.534ZM480.786 304.32H430.714V306.823H480.786V304.32ZM479.534 305.571V355.643H482.037V305.571H479.534ZM480.786 354.391H430.714V356.895H480.786V354.391ZM479.534 355.643V405.714H482.037V355.643H479.534ZM480.786 404.462H430.714V406.966H480.786V404.462ZM479.534 405.714V455.786H482.037V405.714H479.534ZM480.786 454.534H430.714V457.037H480.786V454.534ZM479.534 455.786V505.857H482.037V455.786H479.534ZM480.786 504.605H430.714V507.109H480.786V504.605ZM479.534 505.857V555.929H482.037V505.857H479.534ZM480.786 554.677H430.714V557.18H480.786V554.677ZM479.534 555.929V606H482.037V555.929H479.534ZM480.786 604.748H430.714V607.252H480.786V604.748ZM479.534 606V656.071H482.037V606H479.534ZM529.605 -95V-44.9286H532.109V-95H529.605ZM530.857 -46.1804H480.786V-43.6768H530.857V-46.1804ZM529.605 -44.9286V5.14285H532.109V-44.9286H529.605ZM530.857 3.89107H480.786V6.39464H530.857V3.89107ZM529.605 5.14285V55.2143H532.109V5.14285H529.605ZM530.857 53.9625H480.786V56.4661H530.857V53.9625ZM529.605 55.2143V105.286H532.109V55.2143H529.605ZM530.857 104.034H480.786V106.537H530.857V104.034ZM529.605 105.286V155.357H532.109V105.286H529.605ZM530.857 154.105H480.786V156.609H530.857V154.105ZM529.605 155.357V205.429H532.109V155.357H529.605ZM530.857 204.177H480.786V206.68H530.857V204.177ZM529.605 205.429V255.5H532.109V205.429H529.605ZM530.857 254.248H480.786V256.752H530.857V254.248ZM529.605 255.5V305.571H532.109V255.5H529.605ZM530.857 304.32H480.786V306.823H530.857V304.32ZM529.605 305.571V355.643H532.109V305.571H529.605ZM530.857 354.391H480.786V356.895H530.857V354.391ZM529.605 355.643V405.714H532.109V355.643H529.605ZM530.857 404.462H480.786V406.966H530.857V404.462ZM529.605 405.714V455.786H532.109V405.714H529.605ZM530.857 454.534H480.786V457.037H530.857V454.534ZM529.605 455.786V505.857H532.109V455.786H529.605ZM530.857 504.605H480.786V507.109H530.857V504.605ZM529.605 505.857V555.929H532.109V505.857H529.605ZM530.857 554.677H480.786V557.18H530.857V554.677ZM529.605 555.929V606H532.109V555.929H529.605ZM530.857 604.748H480.786V607.252H530.857V604.748ZM529.605 606V656.071H532.109V606H529.605ZM579.677 -95V-44.9286H582.18V-95H579.677ZM580.929 -46.1804H530.857V-43.6768H580.929V-46.1804ZM579.677 -44.9286V5.14285H582.18V-44.9286H579.677ZM580.929 3.89107H530.857V6.39464H580.929V3.89107ZM579.677 5.14285V55.2143H582.18V5.14285H579.677ZM580.929 53.9625H530.857V56.4661H580.929V53.9625ZM579.677 55.2143V105.286H582.18V55.2143H579.677ZM580.929 104.034H530.857V106.537H580.929V104.034ZM579.677 105.286V155.357H582.18V105.286H579.677ZM580.929 154.105H530.857V156.609H580.929V154.105ZM579.677 155.357V205.429H582.18V155.357H579.677ZM580.929 204.177H530.857V206.68H580.929V204.177ZM579.677 205.429V255.5H582.18V205.429H579.677ZM580.929 254.248H530.857V256.752H580.929V254.248ZM579.677 255.5V305.571H582.18V255.5H579.677ZM580.929 304.32H530.857V306.823H580.929V304.32ZM579.677 305.571V355.643H582.18V305.571H579.677ZM580.929 354.391H530.857V356.895H580.929V354.391ZM579.677 355.643V405.714H582.18V355.643H579.677ZM580.929 404.462H530.857V406.966H580.929V404.462ZM579.677 405.714V455.786H582.18V405.714H579.677ZM580.929 454.534H530.857V457.037H580.929V454.534ZM579.677 455.786V505.857H582.18V455.786H579.677ZM580.929 504.605H530.857V507.109H580.929V504.605ZM579.677 505.857V555.929H582.18V505.857H579.677ZM580.929 554.677H530.857V557.18H580.929V554.677ZM579.677 555.929V606H582.18V555.929H579.677ZM580.929 604.748H530.857V607.252H580.929V604.748ZM579.677 606V656.071H582.18V606H579.677ZM631 -46.1804H580.929V-43.6768H631V-46.1804ZM631 3.89107H580.929V6.39464H631V3.89107ZM631 53.9625H580.929V56.4661H631V53.9625ZM631 104.034H580.929V106.537H631V104.034ZM631 154.105H580.929V156.609H631V154.105ZM631 204.177H580.929V206.68H631V204.177ZM631 254.248H580.929V256.752H631V254.248ZM631 304.32H580.929V306.823H631V304.32ZM631 354.391H580.929V356.895H631V354.391ZM631 404.462H580.929V406.966H631V404.462ZM631 454.534H580.929V457.037H631V454.534ZM631 504.605H580.929V507.109H631V504.605ZM631 554.677H580.929V557.18H631V554.677ZM631 604.748H580.929V607.252H631V604.748ZM-70 -95V-97.5036H-72.5036V-95H-70ZM-70 656.071H-72.5036V658.575H-70V656.071ZM631 -95H633.504V-97.5036H631V-95ZM631 656.071V658.575H633.504V656.071H631ZM-70 -92.4964H-19.9286V-97.5036H-70V-92.4964ZM-67.4964 -44.9286V-95H-72.5036V-44.9286H-67.4964ZM-67.4964 5.14285V-44.9286H-72.5036V5.14285H-67.4964ZM-67.4964 55.2143V5.14285H-72.5036V55.2143H-67.4964ZM-67.4964 105.286V55.2143H-72.5036V105.286H-67.4964ZM-67.4964 155.357V105.286H-72.5036V155.357H-67.4964ZM-67.4964 205.429V155.357H-72.5036V205.429H-67.4964ZM-67.4964 255.5V205.429H-72.5036V255.5H-67.4964ZM-67.4964 305.571V255.5H-72.5036V305.571H-67.4964ZM-67.4964 355.643V305.571H-72.5036V355.643H-67.4964ZM-67.4964 405.714V355.643H-72.5036V405.714H-67.4964ZM-67.4964 455.786V405.714H-72.5036V455.786H-67.4964ZM-67.4964 505.857V455.786H-72.5036V505.857H-67.4964ZM-67.4964 555.929V505.857H-72.5036V555.929H-67.4964ZM-67.4964 606V555.929H-72.5036V606H-67.4964ZM-19.9286 653.568H-70V658.575H-19.9286V653.568ZM-67.4964 656.071V606H-72.5036V656.071H-67.4964ZM-19.9286 -92.4964H30.1429V-97.5036H-19.9286V-92.4964ZM30.1429 653.568H-19.9286V658.575H30.1429V653.568ZM30.1429 -92.4964H80.2143V-97.5036H30.1429V-92.4964ZM80.2143 653.568H30.1429V658.575H80.2143V653.568ZM80.2143 -92.4964H130.286V-97.5036H80.2143V-92.4964ZM130.286 653.568H80.2143V658.575H130.286V653.568ZM130.286 -92.4964H180.357V-97.5036H130.286V-92.4964ZM180.357 653.568H130.286V658.575H180.357V653.568ZM180.357 -92.4964H230.429V-97.5036H180.357V-92.4964ZM230.429 653.568H180.357V658.575H230.429V653.568ZM230.429 -92.4964H280.5V-97.5036H230.429V-92.4964ZM280.5 653.568H230.429V658.575H280.5V653.568ZM280.5 -92.4964H330.571V-97.5036H280.5V-92.4964ZM330.571 653.568H280.5V658.575H330.571V653.568ZM330.571 -92.4964H380.643V-97.5036H330.571V-92.4964ZM380.643 653.568H330.571V658.575H380.643V653.568ZM380.643 -92.4964H430.714V-97.5036H380.643V-92.4964ZM430.714 653.568H380.643V658.575H430.714V653.568ZM430.714 -92.4964H480.786V-97.5036H430.714V-92.4964ZM480.786 653.568H430.714V658.575H480.786V653.568ZM480.786 -92.4964H530.857V-97.5036H480.786V-92.4964ZM530.857 653.568H480.786V658.575H530.857V653.568ZM530.857 -92.4964H580.929V-97.5036H530.857V-92.4964ZM580.929 653.568H530.857V658.575H580.929V653.568ZM580.929 -92.4964H631V-97.5036H580.929V-92.4964ZM628.496 -95V-44.9286H633.504V-95H628.496ZM628.496 -44.9286V5.14285H633.504V-44.9286H628.496ZM628.496 5.14285V55.2143H633.504V5.14285H628.496ZM628.496 55.2143V105.286H633.504V55.2143H628.496ZM628.496 105.286V155.357H633.504V105.286H628.496ZM628.496 155.357V205.429H633.504V155.357H628.496ZM628.496 205.429V255.5H633.504V205.429H628.496ZM628.496 255.5V305.571H633.504V255.5H628.496ZM628.496 305.571V355.643H633.504V305.571H628.496ZM628.496 355.643V405.714H633.504V355.643H628.496ZM628.496 405.714V455.786H633.504V405.714H628.496ZM628.496 455.786V505.857H633.504V455.786H628.496ZM628.496 505.857V555.929H633.504V505.857H628.496ZM628.496 555.929V606H633.504V555.929H628.496ZM628.496 606V656.071H633.504V606H628.496ZM631 653.568H580.929V658.575H631V653.568Z" fill="url(#paint0_radial_57_9)" mask="url(#path-1-inside-1_57_9)"/>
</g>
</g>
<defs>
<radialGradient id="paint0_radial_57_9" cx="0" cy="0" r="1" gradientUnits="userSpaceOnUse" gradientTransform="translate(281 281) rotate(90) scale(375 350)">
<stop stop-color="#00FF48"/>
<stop offset="0.75" stop-color="#00FF48" stop-opacity="0"/>
</radialGradient>
<clipPath id="clip0_57_9">
<rect width="562" height="562" fill="white"/>
</clipPath>
</defs>
</svg>
